<svg xmlns="http://www.w3.org/2000/svg" viewBox="0 0 1892.53 1096.38"><defs><style>.cls-1{fill:#68a32b;stroke:#68a32b;}.cls-1,.cls-2{stroke-miterlimit:10;}.cls-2{fill:#555c5e;stroke:#555c5e;}</style></defs><g id="Layer_2" data-name="Layer 2"><g id="Layer_2-2" data-name="Layer 2"><path class="cls-1" d="M1.07.5h470l-.71,13s-39.11,39.11-65.18,78.22C340,222.13,522.55,365.54,626.85,456.8,952.77,730.58,770.25,887,770.25,887L574.7,665.39,418.25,482.87,131.44,156.94Z"/><path class="cls-2" d="M594.25.5H718.11c-13,39.11,4,118.73,39.11,156.44,182.52,182.52,341.54,236.62,339,430.23C1095,678.72,963.76,847.56,963.76,847.56S1161.37,691.46,1174.4,522c9.22-119.84-52.14-169.48-117.33-260.74C1020.29,209.75,926.7,130.87,913.66,52.65c-2.14-12.86,0-52.15,0-52.15h977.78L952.77,1095.61,809.37,926.13s143.4-91.26,143.4-273.78c0-117.33-58.3-162.6-117.33-221.63C718.11,313.39,574.7,209.82,574.7,91.76c0-39.11,13-91.26,13-91.26Z"/></g></g></svg>